<?xml version="1.0" standalone="no"?>
<!DOCTYPE svg PUBLIC "-//W3C//DTD SVG 20010904//EN"
 "http://www.w3.org/TR/2001/REC-SVG-20010904/DTD/svg10.dtd">
<svg version="1.0" xmlns="http://www.w3.org/2000/svg"
 width="200.000000pt" height="74.000000pt" viewBox="0 0 200.000000 74.000000"
 preserveAspectRatio="xMidYMid meet">

<g transform="translate(0.000000,74.000000) scale(0.100000,-0.100000)"
fill="#000000" stroke="none">
<path d="M1282 684 c-36 -16 -78 -18 -252 -15 -132 2 -205 -14 -248 -57 -16
-15 -21 -22 -12 -15 23 18 111 55 116 50 3 -3 -24 -25 -60 -51 -36 -25 -68
-51 -72 -58 -4 -6 14 3 39 20 25 18 50 32 55 32 5 0 12 -17 16 -38 12 -75 74
-124 157 -124 90 0 161 69 161 157 0 41 2 45 24 45 36 0 98 28 112 50 14 23 9
24 -36 4z m-292 -84 c22 -40 -26 -80 -58 -48 -13 13 -16 50 -5 61 14 14 53 6
63 -13z"/>
<path d="M1230 555 c-5 -14 -10 -30 -10 -34 0 -16 -73 -92 -104 -108 -17 -9
-53 -23 -81 -30 l-50 -13 48 5 c52 5 108 30 155 70 36 30 106 125 93 125 -5 0
-16 3 -25 6 -11 4 -19 -2 -26 -21z"/>
<path d="M707 482 c-20 -22 -22 -42 -5 -42 6 0 8 3 5 7 -4 3 0 17 8 30 18 28
14 30 -8 5z"/>
<path d="M553 262 c-29 -4 -45 -26 -41 -54 2 -18 14 -27 53 -39 58 -18 72 -44
29 -55 -18 -5 -37 -2 -56 9 -34 19 -47 5 -16 -17 31 -22 84 -20 108 4 37 37
20 66 -44 77 -38 6 -62 26 -51 43 8 13 68 13 82 -1 8 -8 13 -8 18 1 4 6 5 13
2 16 -9 9 -63 20 -84 16z"/>
<path d="M753 262 c-29 -4 -45 -26 -41 -54 2 -18 14 -27 53 -39 58 -18 72 -44
29 -55 -18 -5 -37 -2 -56 9 -34 19 -47 5 -16 -17 45 -32 128 -9 128 34 0 23
-11 30 -70 50 -54 18 -61 43 -12 48 18 2 39 -2 47 -8 10 -8 15 -8 20 0 4 6 5
13 2 16 -9 9 -63 20 -84 16z"/>
<path d="M70 175 c0 -50 4 -85 10 -85 6 0 10 28 10 63 l1 62 35 -40 35 -39 24
29 c13 17 24 33 25 38 0 4 5 7 10 7 6 0 10 -27 10 -60 0 -33 4 -60 10 -60 6 0
10 35 10 85 0 98 -10 106 -53 45 -16 -22 -32 -40 -37 -40 -5 0 -21 18 -37 40
-43 61 -53 53 -53 -45z"/>
<path d="M330 250 c0 -5 9 -10 20 -10 18 0 20 -7 20 -59 0 -50 -3 -59 -20 -64
-39 -10 -20 -27 30 -27 38 0 50 4 50 15 0 8 -9 15 -20 15 -18 0 -20 7 -20 60
0 53 2 60 20 60 11 0 20 5 20 10 0 6 -22 10 -50 10 -27 0 -50 -4 -50 -10z"/>
<path d="M1020 175 c0 -82 15 -119 22 -53 5 49 35 50 75 2 36 -44 54 -41 27 4
-16 28 -16 31 -1 47 43 42 9 85 -69 85 l-54 0 0 -85z m110 50 c19 -23 -5 -45
-51 -45 -37 0 -39 2 -39 30 0 28 2 30 39 30 22 0 44 -6 51 -15z"/>
<path d="M1240 251 c0 -5 9 -11 20 -14 17 -4 20 -14 20 -56 0 -40 -4 -52 -20
-61 -34 -18 -22 -30 30 -30 50 0 69 17 30 27 -17 5 -20 14 -20 64 0 52 2 59
20 59 11 0 20 5 20 10 0 6 -22 10 -50 10 -27 0 -50 -4 -50 -9z"/>
<path d="M1400 250 c0 -5 14 -10 30 -10 l30 0 0 -75 c0 -43 4 -75 10 -75 6 0
10 32 10 75 l0 75 30 0 c17 0 30 5 30 10 0 6 -30 10 -70 10 -40 0 -70 -4 -70
-10z"/>
<path d="M1590 250 c0 -5 23 -10 50 -10 28 0 50 -3 50 -6 0 -3 -22 -31 -50
-62 -27 -31 -50 -62 -50 -69 0 -10 20 -13 76 -13 56 0 75 3 72 13 -3 6 -28 14
-56 17 l-52 5 55 63 c30 35 55 65 55 68 0 2 -34 4 -75 4 -43 0 -75 -4 -75 -10z"/>
<path d="M1820 207 c27 -37 40 -64 40 -85 0 -18 5 -32 10 -32 6 0 10 16 10 36
0 26 10 51 35 85 25 34 31 49 20 49 -8 0 -25 -16 -37 -35 -13 -19 -26 -35 -30
-35 -4 0 -19 16 -34 35 -14 19 -33 35 -41 35 -8 0 1 -20 27 -53z"/>
</g>
</svg>
